<mxfile host="app.diagrams.net" modified="2021-08-12T19:47:59.938Z" agent="5.0 (Windows NT 10.0; Win64; x64) AppleWebKit/537.36 (KHTML, like Gecko) Chrome/92.0.4515.131 Safari/537.36" etag="XUO62p_cq5EatgTL--4x" version="14.9.6" type="github">
  <diagram id="HpuQ_cO63sJKbHAZOsU3" name="Page-1">
    <mxGraphModel dx="782" dy="436" grid="1" gridSize="10" guides="1" tooltips="1" connect="1" arrows="1" fold="1" page="1" pageScale="1" pageWidth="827" pageHeight="1169" math="0" shadow="0">
      <root>
        <mxCell id="0" />
        <mxCell id="1" parent="0" />
        <mxCell id="5nzfeM5cmIDIUaJB7qOo-1" value="" style="ellipse;whiteSpace=wrap;html=1;" vertex="1" parent="1">
          <mxGeometry x="330" y="10" width="120" height="50" as="geometry" />
        </mxCell>
        <mxCell id="5nzfeM5cmIDIUaJB7qOo-2" value="Start" style="text;html=1;strokeColor=none;fillColor=none;align=center;verticalAlign=middle;whiteSpace=wrap;rounded=0;" vertex="1" parent="1">
          <mxGeometry x="330" y="2.5" width="120" height="65" as="geometry" />
        </mxCell>
        <mxCell id="5nzfeM5cmIDIUaJB7qOo-3" value="" style="endArrow=classic;html=1;" edge="1" parent="1" target="5nzfeM5cmIDIUaJB7qOo-4">
          <mxGeometry width="50" height="50" relative="1" as="geometry">
            <mxPoint x="389.5" y="100" as="sourcePoint" />
            <mxPoint x="389.5" y="120" as="targetPoint" />
            <Array as="points">
              <mxPoint x="389.5" y="60" />
            </Array>
          </mxGeometry>
        </mxCell>
        <mxCell id="5nzfeM5cmIDIUaJB7qOo-4" value="" style="rounded=0;whiteSpace=wrap;html=1;" vertex="1" parent="1">
          <mxGeometry x="329.5" y="90" width="120" height="60" as="geometry" />
        </mxCell>
        <mxCell id="5nzfeM5cmIDIUaJB7qOo-5" value="A=5 grados" style="text;html=1;strokeColor=none;fillColor=none;align=center;verticalAlign=middle;whiteSpace=wrap;rounded=0;" vertex="1" parent="1">
          <mxGeometry x="349.75" y="110" width="80.5" height="20" as="geometry" />
        </mxCell>
        <mxCell id="5nzfeM5cmIDIUaJB7qOo-8" value="" style="endArrow=classic;html=1;" edge="1" parent="1" target="5nzfeM5cmIDIUaJB7qOo-9">
          <mxGeometry width="50" height="50" relative="1" as="geometry">
            <mxPoint x="389.5" y="150" as="sourcePoint" />
            <mxPoint x="390" y="190" as="targetPoint" />
          </mxGeometry>
        </mxCell>
        <mxCell id="5nzfeM5cmIDIUaJB7qOo-9" value="" style="shape=parallelogram;perimeter=parallelogramPerimeter;whiteSpace=wrap;html=1;fixedSize=1;" vertex="1" parent="1">
          <mxGeometry x="329.5" y="190" width="120" height="60" as="geometry" />
        </mxCell>
        <mxCell id="5nzfeM5cmIDIUaJB7qOo-10" value="¿cuántas vueltas da?" style="text;html=1;strokeColor=none;fillColor=none;align=center;verticalAlign=middle;whiteSpace=wrap;rounded=0;" vertex="1" parent="1">
          <mxGeometry x="344.25" y="190" width="90.5" height="60" as="geometry" />
        </mxCell>
        <mxCell id="5nzfeM5cmIDIUaJB7qOo-13" value="" style="endArrow=classic;html=1;" edge="1" parent="1">
          <mxGeometry width="50" height="50" relative="1" as="geometry">
            <mxPoint x="380" y="230" as="sourcePoint" />
            <mxPoint x="430" y="180" as="targetPoint" />
          </mxGeometry>
        </mxCell>
      </root>
    </mxGraphModel>
  </diagram>
</mxfile>
